<svg xmlns="http://www.w3.org/2000/svg" width="640" height="800" viewBox="0 0 640 800"><rect width="640" height="800" fill="#080a06"/><g fill="#ccff00" font-family="monospace" font-weight="bold"><text x="42" y="58" font-size="14" letter-spacing="3">DEGEN VILLAGE</text><text x="598" y="58" text-anchor="end" font-size="14">19 / 30</text><path d="M42 83H598" fill="none" stroke="#ccff00" stroke-width="2"/><text x="42" y="109" font-size="10" letter-spacing="3">FIRST RESIDENTS / SWARM</text></g><circle cx="320" cy="380" r="237" fill="none" stroke="#ccff00" stroke-width="13"/><g fill="#080a06" stroke="#ccff00" stroke-width="10" stroke-linejoin="round"><path d="M275 400L202 315L148 313L130 342L157 405L256 439Z"/><path d="M365 400L438 315L492 313L510 342L483 405L384 439Z"/></g><path d="M152 341L254 410M488 341L386 410" stroke="#ccff00" stroke-width="7"/><g fill="none" stroke="#ccff00" stroke-width="12" stroke-linecap="round" stroke-linejoin="round"><path d="M264 431L212 459L190 494M258 463L225 496L231 527M280 491L268 540L251 555"/><path d="M376 431L428 459L450 494M382 463L415 496L409 527M360 491L372 540L389 555"/></g><path d="M271 405L369 405L390 468L366 519L320 550L274 519L250 468Z" fill="#ccff00" stroke="#080a06" stroke-width="10" stroke-linejoin="round"/><path d="M265 452L320 467L375 452M269 485L320 500L371 485M292 518L320 527L348 518" fill="none" stroke="#080a06" stroke-width="13"/><path d="M284 271L269 228L247 214M356 271L371 228L393 214" fill="none" stroke="#ccff00" stroke-width="11" stroke-linecap="round"/><circle cx="247" cy="214" r="13" fill="#ccff00"/><circle cx="393" cy="214" r="13" fill="#ccff00"/><path d="M227 278L282 266L320 292L358 266L413 278L442 327L422 388L375 408L320 436L265 408L218 388L198 327Z" fill="#ccff00" stroke="#080a06" stroke-width="10" stroke-linejoin="round"/><path d="M237 304L277 290L311 321L303 378L266 388L231 367L218 332Z" fill="#080a06"/><path d="M403 304L363 290L329 321L337 378L374 388L409 367L422 332Z" fill="#080a06"/><path d="M303 402Q320 415 337 400Q321 433 303 402" fill="#080a06"/><g transform="translate(0 -14)"><g fill="#ccff00"><ellipse cx="266" cy="359" rx="22" ry="27"/><ellipse cx="374" cy="359" rx="22" ry="27"/></g><g fill="#080a06"><path d="M267 337L280 341L276 363L263 366L258 356Z"/><path d="M361 342L374 336L382 354L377 367L364 363Z"/></g><g fill="#080a06"><path d="M237 324L296 354L296 329ZM344 329L403 324L344 354Z"/></g></g><path d="M206 300L228 266L389 256L437 290L348 313L226 315Z" fill="#080a06" stroke="#ccff00" stroke-width="8" stroke-linejoin="round"/><path d="M246 287L371 278M348 313L448 291" stroke="#ccff00" stroke-width="8"/><g font-family="monospace" font-weight="bold" text-anchor="middle" fill="#ccff00"><text x="320" y="700" font-size="38" letter-spacing="7">SPARK</text><text x="320" y="738" font-size="11" letter-spacing="2">FLY / Focused / Visor</text><text x="320" y="770" font-size="9" letter-spacing="4">BOT PFP / GENESIS 001</text></g></svg>
